<svg viewBox="0 0 32 32" xmlns="http://www.w3.org/2000/svg" class="sui-icon-svg">
    <path
        opacity="0.32"
        d="M25 4h2c1.2 0 2 .8 2 2v20c0 1.2-.8 2-2 2h-2c-1.2 0-2-.8-2-2V6c0-1.2.8-2 2-2zm-8 10c1.2 0 2 .8 2 2v10c0 1.2-.8 2-2 2h-2c-1.2 0-2-.8-2-2V16c0-1.2.8-2 2-2h2zM7 20c1.2 0 2 .8 2 2v4c0 1.2-.8 2-2 2H5c-1.2 0-2-.8-2-2v-4c0-1.2.8-2 2-2h2z"></path>
    <path
        fill="red"
        opacity="0.6"
        transform="translate(0.6 10)"
        d="M 25.6 14.292 l 3.111 -3.111 l 1.697 1.697 l -3.111 3.111 l 3.111 3.111 l -1.697 1.697 l -3.111 -3.111 l -3.111 3.111 l -1.697 -1.697 l 3.111 -3.111 l -3.111 -3.111 l 1.697 -1.697 l 3.111 3.111 z"></path>
</svg>
