<svg width="24" height="24" viewBox="0 0 24 24" fill="none" xmlns="http://www.w3.org/2000/svg">
<g clip-path="url(#clip0_0_6997)">
<path d="M16.5 6.75C17.3287 6.75 18 7.42125 18 8.25V17.25C18 18.0787 17.3287 18.75 16.5 18.75H13.0605C12.8617 18.75 12.6705 18.8287 12.5303 18.9697L10.1745 21.3255C9.9405 21.5595 9.56025 21.5595 9.32625 21.3255L6.9705 18.9697C6.8295 18.8287 6.639 18.75 6.44025 18.75H3.00075C2.172 18.75 1.50075 18.0787 1.50075 17.25V8.25C1.50075 7.42125 2.172 6.75 3.00075 6.75H16.5ZM15.75 8.25H3.75C3.336 8.25 3 8.586 3 9V16.5C3 16.914 3.336 17.25 3.75 17.25H6.75C7.1475 17.25 7.52925 17.4083 7.8105 17.6895L9.75 19.629L11.6895 17.6895C11.9708 17.4083 12.3525 17.25 12.75 17.25H15.75C16.164 17.25 16.5 16.914 16.5 16.5V9C16.5 8.586 16.164 8.25 15.75 8.25ZM21 2.25C21.8288 2.25 22.5 2.92125 22.5 3.75V12.75C22.5 13.5787 21.8288 14.25 21 14.25H18.75V12.75H20.25C20.664 12.75 21 12.414 21 12V4.5C21 4.086 20.664 3.75 20.25 3.75H8.25C7.836 3.75 7.5 4.086 7.5 4.5V6H6V3.75C6 2.92125 6.67125 2.25 7.5 2.25H21Z" fill="#121212"/>
</g>
<defs>
<clipPath id="clip0_0_6997">
<rect width="24" height="24" fill="white"/>
</clipPath>
</defs>
</svg>
