<svg preserveAspectRatio="none" width="100%" height="100%" overflow="visible" style="display: block;" viewBox="0 0 28 28" fill="none" xmlns="http://www.w3.org/2000/svg">
<g id="container">
<path id="Vector" d="M23.625 2.625C24.108 2.625 24.5 3.017 24.5 3.5V8.75C24.5 9.19888 24.1623 9.56813 23.7274 9.61888L23.625 9.625H18.375C17.892 9.625 17.5 9.233 17.5 8.75C17.5 8.267 17.892 7.875 18.375 7.875L21.4253 7.87412C19.6228 5.68925 16.9251 4.375 14 4.375C8.68438 4.375 4.375 8.68438 4.375 14C4.375 19.3156 8.68438 23.625 14 23.625C19.3156 23.625 23.625 19.3156 23.625 14C23.625 13.517 24.017 13.125 24.5 13.125C24.983 13.125 25.375 13.517 25.375 14C25.375 20.2825 20.2825 25.375 14 25.375C7.7175 25.375 2.625 20.2825 2.625 14C2.625 7.7175 7.7175 2.625 14 2.625C17.4431 2.625 20.622 4.16762 22.7509 6.73137L22.75 3.5C22.75 3.017 23.142 2.625 23.625 2.625Z" fill="var(--fill-0, #121212)"/>
</g>
</svg>
