<svg preserveAspectRatio="none" width="100%" height="100%" overflow="visible" style="display: block;" viewBox="0 0 28 28" fill="none" xmlns="http://www.w3.org/2000/svg">
<g id="container">
<path id="Vector" d="M7.75028 17.9996C8.99278 17.9996 9.9999 19.0067 9.9999 20.2492C9.9999 21.4917 8.99278 22.4988 7.75028 22.4988C6.50778 22.4988 5.50065 21.4917 5.50065 20.2492C5.50065 19.0067 6.50778 17.9996 7.75028 17.9996ZM14.0004 17.9996C15.2429 17.9996 16.25 19.0067 16.25 20.2492C16.25 21.4917 15.2429 22.4988 14.0004 22.4988C12.7579 22.4988 11.7508 21.4917 11.7508 20.2492C11.7508 19.0067 12.7579 17.9996 14.0004 17.9996ZM20.2505 17.9996C21.493 17.9996 22.5002 19.0067 22.5002 20.2492C22.5002 21.4917 21.493 22.4988 20.2505 22.4988C19.008 22.4988 18.0009 21.4917 18.0009 20.2492C18.0009 19.0067 19.008 17.9996 20.2505 17.9996ZM7.75028 11.7503C8.99278 11.7503 9.9999 12.7575 9.9999 14C9.9999 15.2425 8.99278 16.2496 7.75028 16.2496C6.50778 16.2496 5.50065 15.2425 5.50065 14C5.50065 12.7575 6.50778 11.7503 7.75028 11.7503ZM14.0004 11.7503C15.2429 11.7503 16.25 12.7575 16.25 14C16.25 15.2425 15.2429 16.2496 14.0004 16.2496C12.7579 16.2496 11.7508 15.2425 11.7508 14C11.7508 12.7575 12.7579 11.7503 14.0004 11.7503ZM20.2505 11.7503C21.493 11.7503 22.5002 12.7575 22.5002 14C22.5002 15.2425 21.493 16.2496 20.2505 16.2496C19.008 16.2496 18.0009 15.2425 18.0009 14C18.0009 12.7575 19.008 11.7503 20.2505 11.7503ZM7.75028 5.50022C8.99278 5.50022 9.9999 6.50735 9.9999 7.74985C9.9999 8.99235 8.99278 9.99947 7.75028 9.99947C6.50778 9.99947 5.50065 8.99235 5.50065 7.74985C5.50065 6.50735 6.50778 5.50022 7.75028 5.50022ZM14.0004 5.50022C15.2429 5.50022 16.25 6.50735 16.25 7.74985C16.25 8.99235 15.2429 9.99947 14.0004 9.99947C12.7579 9.99947 11.7508 8.99235 11.7508 7.74985C11.7508 6.50735 12.7579 5.50022 14.0004 5.50022ZM20.2505 5.50022C21.493 5.50022 22.5002 6.50735 22.5002 7.74985C22.5002 8.99235 21.493 9.99947 20.2505 9.99947C19.008 9.99947 18.0009 8.99235 18.0009 7.74985C18.0009 6.50735 19.008 5.50022 20.2505 5.50022Z" fill="var(--fill-0, #121212)"/>
</g>
</svg>
