<svg preserveAspectRatio="none" width="100%" height="100%" overflow="visible" style="display: block;" viewBox="0 0 28 28" fill="none" xmlns="http://www.w3.org/2000/svg">
<g id="container">
<path id="Vector" d="M14.7499 20.9711V24.0004H13.2501V20.9711C8.59337 20.6797 6.01037 17.6514 5.775 12.1564L7.27475 12.0942C7.48387 17.0082 9.74575 19.5002 14 19.5002C18.2542 19.5002 20.5161 17.0082 20.7253 12.0942L22.225 12.1564C21.9896 17.6514 19.4084 20.6815 14.7499 20.9711ZM9.49988 10.8754C9.49988 7.65012 9.84812 4.50013 14 4.50013C18.1527 4.50013 18.5001 7.65012 18.5001 10.8754C18.5001 14.1006 18.1527 17.2506 14 17.2506C9.84812 17.2506 9.49988 14.1006 9.49988 10.8754Z" fill="var(--fill-0, #121212)"/>
</g>
</svg>
