<svg width="24" height="24" viewBox="0 0 24 24" fill="none" xmlns="http://www.w3.org/2000/svg">
<g clip-path="url(#clip0_0_5315)">
<path d="M12 1.5C17.799 1.5 22.5 6.201 22.5 12C22.5 17.799 17.799 22.5 12 22.5C6.201 22.5 1.5 17.799 1.5 12C1.5 6.201 6.201 1.5 12 1.5ZM12 3C7.02975 3 3 7.02975 3 12C3 16.9703 7.02975 21 12 21C16.9703 21 21 16.9703 21 12C21 7.02975 16.9703 3 12 3ZM11.685 15.5625C11.8403 15.5625 11.9873 15.5925 12.1275 15.6525C12.2677 15.7125 12.3877 15.7928 12.4875 15.8925C12.5872 15.9923 12.6675 16.1123 12.7275 16.2525C12.7875 16.3927 12.8175 16.5398 12.8175 16.695C12.8175 16.8548 12.7875 17.004 12.7275 17.1412C12.6675 17.2785 12.5872 17.3977 12.4875 17.4975C12.3877 17.5972 12.2677 17.676 12.1275 17.7337C11.9873 17.7915 11.8403 17.82 11.685 17.82C11.5252 17.82 11.3752 17.7915 11.235 17.7337C11.0947 17.676 10.974 17.5972 10.8713 17.4975C10.7685 17.3977 10.689 17.2785 10.6313 17.1412C10.5735 17.004 10.545 16.8548 10.545 16.695C10.545 16.5398 10.5735 16.3927 10.6313 16.2525C10.689 16.1123 10.7685 15.9923 10.8713 15.8925C10.974 15.7928 11.0947 15.7125 11.235 15.6525C11.3752 15.5925 11.5252 15.5625 11.685 15.5625ZM12 6.75C12.435 6.75 12.831 6.81 13.1887 6.93C13.5465 7.05 13.8525 7.221 14.1075 7.44375C14.3625 7.6665 14.5598 7.935 14.7 8.25C14.8403 8.565 14.91 8.9175 14.91 9.3075C14.91 9.68775 14.8553 10.0163 14.745 10.2938C14.6347 10.5712 14.496 10.8127 14.3287 11.0175C14.1615 11.2222 13.98 11.4 13.785 11.55L13.23 11.9738C13.0552 12.1065 12.9037 12.2363 12.7762 12.3638C12.6742 12.4658 12.6052 12.5782 12.5685 12.7013L12.5475 12.795L12.375 13.89H11.1075L10.98 12.6675L10.974 12.633L10.9725 12.54C10.9725 12.3202 11.0273 12.129 11.1375 11.9662C11.2478 11.8035 11.385 11.6512 11.55 11.5087C11.715 11.3663 11.8928 11.2275 12.0825 11.0925C12.2723 10.9575 12.45 10.8112 12.615 10.6537C12.78 10.4963 12.9173 10.3177 13.0275 10.1175C13.1378 9.91725 13.1925 9.6825 13.1925 9.4125C13.1925 9.2325 13.1587 9.07125 13.0912 8.92875C13.0238 8.78625 12.93 8.664 12.81 8.56125C12.69 8.4585 12.546 8.37975 12.3787 8.325C12.2115 8.27025 12.03 8.2425 11.835 8.2425C11.55 8.2425 11.3085 8.274 11.1112 8.33625C10.914 8.3985 10.746 8.469 10.6088 8.54625C10.4715 8.6235 10.3553 8.694 10.26 8.75625C10.1648 8.8185 10.08 8.85 10.005 8.85C9.8505 8.85 9.7335 8.79525 9.6525 8.685L9.1275 7.8525C9.29775 7.7025 9.48375 7.56 9.68625 7.425C9.88875 7.29 10.1077 7.17225 10.3425 7.0725C10.5772 6.97275 10.8323 6.894 11.1075 6.83625C11.3828 6.7785 11.6798 6.75 12 6.75Z" fill="#121212"/>
</g>
<defs>
<clipPath id="clip0_0_5315">
<rect width="24" height="24" fill="white"/>
</clipPath>
</defs>
</svg>
