<svg width="24" height="24" viewBox="0 0 24 24" fill="none" xmlns="http://www.w3.org/2000/svg">
<g clip-path="url(#clip0_0_9618)">
<path d="M15.75 4.5C16.5787 4.5 17.25 5.17125 17.25 6V18C17.25 18.8287 16.5787 19.5 15.75 19.5H2.25C1.42125 19.5 0.75 18.8287 0.75 18V6C0.75 5.17125 1.42125 4.5 2.25 4.5H15.75ZM15 6H3C2.586 6 2.25 6.336 2.25 6.75V17.25C2.25 17.664 2.586 18 3 18H15C15.414 18 15.75 17.664 15.75 17.25V6.75C15.75 6.336 15.414 6 15 6ZM22.5 7.2135C22.8848 7.2135 23.202 7.503 23.2448 7.87575L23.25 7.9635V16.0365C23.25 16.1528 23.223 16.2675 23.1705 16.3717C22.9987 16.716 22.5975 16.8698 22.245 16.7415L22.1647 16.707L18.4147 14.832C18.189 14.7187 18.0367 14.5013 18.006 14.2545L18 14.1608V9.83775C18 9.585 18.1267 9.35175 18.3337 9.21375L18.4147 9.1665L22.1647 7.2915C22.269 7.23975 22.3838 7.212 22.5 7.212V7.2135ZM21.75 9.177L19.5 10.302V13.698L21.75 14.823V9.177Z" fill="#121212"/>
</g>
<defs>
<clipPath id="clip0_0_9618">
<rect width="24" height="24" fill="white"/>
</clipPath>
</defs>
</svg>
