<svg preserveAspectRatio="none" width="100%" height="100%" overflow="visible" style="display: block;" viewBox="0 0 28 28" fill="none" xmlns="http://www.w3.org/2000/svg">
<g id="container">
<path id="Vector" d="M16.0003 23.5777L10.0196 19.5974C8.41488 19.5571 7.17675 19.1074 6.33938 18.2551C5.08463 16.9802 5.1135 15.1804 5.12313 14.4112L5.12488 13.7594L5.12313 13.5861C5.11 12.7697 5.0855 11.0687 6.3175 9.81575C7.15575 8.96612 8.40088 8.5155 10.0196 8.47787L16.0003 4.49487V23.5777ZM23.2558 14C23.2505 11.5815 21.9634 9.464 20.0393 8.29062L20.0095 8.274L19.2395 9.56112C20.7541 10.4842 21.7516 12.1249 21.7551 13.9991V14C21.7499 15.8751 20.7533 17.5157 19.2623 18.4266L19.2395 18.4397L20.0095 19.7269C21.9643 18.536 23.2505 16.4176 23.2558 14ZM20.0629 14C20.0594 12.7986 19.4198 11.7486 18.4643 11.165L18.4494 11.1571L17.6794 12.4442C18.2315 12.775 18.5605 13.356 18.5605 14C18.5605 14.644 18.2315 15.225 17.6794 15.5557L18.4494 16.8437C19.4198 16.2522 20.0594 15.2014 20.062 14V13.9991L20.0629 14Z" fill="var(--fill-0, #121212)"/>
</g>
</svg>
