<svg width="14" height="14" viewBox="0 0 14 14" fill="none" xmlns="http://www.w3.org/2000/svg">
<g clip-path="url(#clip0_0_6692)">
<path d="M2 7C2 4.23858 4.23858 2 7 2C9.76142 2 12 4.23858 12 7C12 9.76142 9.76142 12 7 12C4.23858 12 2 9.76142 2 7Z" fill="white"/>
<path d="M7 2C6.0111 2 5.0444 2.29324 4.22215 2.84265C3.39991 3.39206 2.75904 4.17295 2.3806 5.08658C2.00217 6.00021 1.90315 7.00555 2.09608 7.97545C2.289 8.94536 2.76521 9.83627 3.46447 10.5355C4.16373 11.2348 5.05465 11.711 6.02455 11.9039C6.99446 12.0969 7.99979 11.9978 8.91342 11.6194C9.82705 11.241 10.6079 10.6001 11.1574 9.77785C11.7068 8.95561 12 7.98891 12 7C12 5.67392 11.4732 4.40215 10.5355 3.46447C9.59785 2.52678 8.32609 2 7 2ZM9.69375 5.24375L7.47188 9.4125C7.42595 9.50513 7.35963 9.58615 7.27791 9.64947C7.19618 9.7128 7.10117 9.75678 7 9.77812H6.87188C6.71425 9.77437 6.56287 9.7158 6.44375 9.6125L4.5 7.9375C4.37244 7.82852 4.2887 7.67701 4.26428 7.51103C4.23985 7.34504 4.27641 7.17583 4.36717 7.03473C4.45793 6.89362 4.59675 6.79019 4.75792 6.74359C4.91909 6.69699 5.09169 6.71036 5.24375 6.78125C5.28897 6.80856 5.33002 6.84224 5.36563 6.88125L6.65625 8L8.47188 4.59375C8.51045 4.51129 8.56494 4.43726 8.63222 4.37593C8.6995 4.3146 8.77825 4.26718 8.86392 4.2364C8.9496 4.20561 9.04052 4.19207 9.13144 4.19655C9.22237 4.20103 9.31152 4.22344 9.39375 4.2625C9.47704 4.29979 9.55186 4.35366 9.61365 4.42082C9.67544 4.48798 9.72289 4.56702 9.75313 4.65312C9.81535 4.82655 9.80636 5.01756 9.72813 5.18437L9.69375 5.25V5.24375Z" fill="#3C9949"/>
</g>
<path d="M7 1C10.3137 1 13 3.68629 13 7C13 10.3137 10.3137 13 7 13C3.68629 13 1 10.3137 1 7C1 3.68629 3.68629 1 7 1Z" stroke="white" stroke-width="2"/>
<defs>
<clipPath id="clip0_0_6692">
<path d="M2 7C2 4.23858 4.23858 2 7 2C9.76142 2 12 4.23858 12 7C12 9.76142 9.76142 12 7 12C4.23858 12 2 9.76142 2 7Z" fill="white"/>
</clipPath>
</defs>
</svg>
