<svg xmlns="http://www.w3.org/2000/svg" xmlns:xlink="http://www.w3.org/1999/xlink" width="186" height="186" viewBox="0 0 186 186"><defs><filter id="a" width="142%" height="244.7%" x="-21%" y="-69.7%" filterUnits="objectBoundingBox"><feOffset dy="1" in="SourceAlpha" result="shadowOffsetOuter1"/><feGaussianBlur in="shadowOffsetOuter1" result="shadowBlurOuter1" stdDeviation="9"/><feColorMatrix in="shadowBlurOuter1" values="0 0 0 0 0 0 0 0 0 0.568627451 0 0 0 0 1 0 0 0 0.2 0"/></filter><filter id="c" width="142%" height="244.7%" x="-21%" y="-69.7%" filterUnits="objectBoundingBox"><feOffset dy="1" in="SourceAlpha" result="shadowOffsetOuter1"/><feGaussianBlur in="shadowOffsetOuter1" result="shadowBlurOuter1" stdDeviation="9"/><feColorMatrix in="shadowBlurOuter1" values="0 0 0 0 0 0 0 0 0 0.568627451 0 0 0 0 1 0 0 0 0.2 0"/></filter><path id="b" d="M0 0h131v38H0z"/><path id="d" d="M0 0h131v38H0z"/></defs><g fill="none" fill-rule="evenodd"><path fill="#F2F9FF" d="M93 186C41.637 186 0 144.36 0 93 0 41.637 41.637 0 93 0s93 41.637 93 93c0 51.361-41.637 93-93 93Z"/><g transform="translate(27 52)"><use xlink:href="#b" fill="#000" filter="url(#a)"/><use xlink:href="#b" fill="#FFF"/><rect width="58" height="5" x="10" y="11" fill="#F3F7FF" rx="2"/><rect width="28" height="5" x="10" y="22" fill="#F3F7FF" rx="2"/></g><path fill="#F7B502" d="m124.773 66.078-6.809 1.032-.157.035c-.805.242-1.094 1.325-.466 1.963l4.925 5.001-1.162 7.064-.016.157c-.035.878.87 1.505 1.649 1.079l6.089-3.336 6.089 3.336.138.064c.79.306 1.643-.396 1.494-1.3l-1.163-7.064 4.926-5 .107-.125c.516-.689.138-1.743-.73-1.874l-6.81-1.032-3.043-6.425a1.106 1.106 0 0 0-2.017 0l-3.044 6.425Z"/><g transform="translate(27 96)"><use xlink:href="#d" fill="#000" filter="url(#c)"/><use xlink:href="#d" fill="#FFF"/><rect width="58" height="5" x="10" y="11" fill="#F3F7FF" rx="2"/><rect width="28" height="5" x="10" y="22" fill="#F3F7FF" rx="2"/></g><path fill="#F7B502" d="m124.773 110.078-6.809 1.032-.157.035c-.805.242-1.094 1.325-.466 1.963l4.925 5.001-1.162 7.064-.016.157c-.035.878.87 1.505 1.649 1.079l6.089-3.336 6.089 3.336.138.064c.79.306 1.643-.396 1.494-1.3l-1.163-7.064 4.926-5 .107-.125c.516-.689.138-1.743-.73-1.874l-6.81-1.032-3.043-6.425a1.106 1.106 0 0 0-2.017 0l-3.044 6.425Z"/></g></svg>
