<svg width="20" height="20" viewBox="0 0 20 20" fill="none" xmlns="http://www.w3.org/2000/svg">
<g id="icon-othername">
<path id="Union" fill-rule="evenodd" clip-rule="evenodd" d="M3.75 1.75C2.64543 1.75 1.75 2.64543 1.75 3.75V7.25C1.75 8.35457 2.64543 9.25 3.75 9.25H7.25C8.35457 9.25 9.25 8.35457 9.25 7.25V3.75C9.25 2.64543 8.35457 1.75 7.25 1.75H3.75ZM3.75 10.75C2.64543 10.75 1.75 11.6454 1.75 12.75V16.25C1.75 17.3546 2.64543 18.25 3.75 18.25H7.25C8.35457 18.25 9.25 17.3546 9.25 16.25V12.75C9.25 11.6454 8.35457 10.75 7.25 10.75H3.75ZM10.75 3.75C10.75 2.64543 11.6454 1.75 12.75 1.75H16.25C17.3546 1.75 18.25 2.64543 18.25 3.75V7.25C18.25 8.35457 17.3546 9.25 16.25 9.25H12.75C11.6454 9.25 10.75 8.35457 10.75 7.25V3.75ZM12.75 10.75C11.6454 10.75 10.75 11.6454 10.75 12.75V16.25C10.75 17.3546 11.6454 18.25 12.75 18.25H16.25C17.3546 18.25 18.25 17.3546 18.25 16.25V12.75C18.25 11.6454 17.3546 10.75 16.25 10.75H12.75Z" fill="#066FAC"/>
</g>
</svg>
