<svg xmlns="http://www.w3.org/2000/svg" width="20" height="20" viewBox="0 0 20 20" fill="none">
  <g clip-path="url(#clip0_672_7515)">
    <path d="M9.99502 19.3211C8.43947 19.3211 7.00891 18.9736 5.70335 18.2785C4.3978 17.5835 3.32171 16.654 2.47508 15.49V17.6544H0.658958V12.4253H5.88813V14.2414H3.82563C4.49229 15.2215 5.36579 16.0096 6.4461 16.6057C7.52642 17.2019 8.7094 17.5 9.99502 17.5C11.0267 17.5 11.9958 17.3054 12.9022 16.9162C13.8086 16.527 14.6002 15.9973 15.2772 15.327C15.9541 14.6567 16.4921 13.8684 16.8913 12.962C17.2905 12.0556 17.4934 11.0815 17.5 10.0399H19.3211C19.3145 11.327 19.0649 12.5336 18.5725 13.6596C18.08 14.7857 17.4097 15.7695 16.5614 16.6112C15.7131 17.4528 14.7251 18.1149 13.5974 18.5974C12.4697 19.0799 11.2689 19.3211 9.99502 19.3211ZM9.21015 15.8333V14.7799C8.57398 14.6338 8.04439 14.3508 7.62138 13.9312C7.19838 13.5115 6.89297 12.9567 6.70517 12.2667L8.14992 11.6952C8.31327 12.2779 8.5687 12.7108 8.91621 12.9939C9.26374 13.2769 9.66667 13.4185 10.125 13.4185C10.59 13.4185 10.9774 13.3142 11.2871 13.1055C11.5969 12.8969 11.7518 12.57 11.7518 12.125C11.7518 11.7355 11.5875 11.4191 11.2588 11.1757C10.9302 10.9324 10.3499 10.6609 9.51813 10.3614C8.6555 10.0565 8.0274 9.69761 7.63383 9.28487C7.24026 8.87214 7.04348 8.33273 7.04348 7.66667C7.04348 7.09722 7.23724 6.57737 7.62477 6.1071C8.0123 5.63685 8.55465 5.3273 9.25181 5.17844V4.16667H10.7899V5.17844C11.2965 5.22674 11.7522 5.43228 12.1569 5.79506C12.5617 6.15784 12.8438 6.59557 13.0032 7.10825L11.6001 7.67979C11.489 7.35039 11.3059 7.07805 11.051 6.86277C10.796 6.64749 10.4496 6.53985 10.0118 6.53985C9.55555 6.53985 9.20312 6.63821 8.95448 6.83491C8.70584 7.03162 8.58152 7.30057 8.58152 7.64175C8.58152 7.9929 8.73792 8.27264 9.05073 8.48098C9.36354 8.68931 9.93494 8.93237 10.7649 9.21014C11.7749 9.57125 12.4482 9.99902 12.7849 10.4934C13.1215 10.9879 13.2899 11.5317 13.2899 12.125C13.2899 12.5377 13.2204 12.8994 13.0815 13.2099C12.9426 13.5205 12.7578 13.7842 12.527 14.0011C12.2961 14.2181 12.0279 14.3917 11.7224 14.522C11.4168 14.6522 11.0921 14.7521 10.7482 14.8216V15.8333H9.21015ZM0.678896 9.96014C0.678896 8.6863 0.922632 7.48717 1.4101 6.36277C1.89756 5.23837 2.5646 4.25369 3.41123 3.40873C4.25785 2.56377 5.24668 1.89756 6.37771 1.4101C7.50875 0.922631 8.71618 0.678894 10 0.678894C11.5556 0.678894 12.9878 1.02808 14.2966 1.72644C15.6055 2.42481 16.68 3.35265 17.5199 4.50996V2.34556H19.341V7.57473H14.1119V5.7586H16.1744C15.4977 4.76856 14.6159 3.97795 13.529 3.38677C12.442 2.79559 11.2657 2.5 10 2.5C8.96829 2.5 7.99924 2.6946 7.09285 3.08379C6.18645 3.47297 5.39479 4.00271 4.71785 4.673C4.04091 5.34329 3.50286 6.13164 3.10371 7.03804C2.70456 7.94444 2.50166 8.91848 2.49502 9.96014H0.678896Z" fill="#3B92F7"/>
  </g>
  <defs>
    <clipPath id="clip0_672_7515">
      <rect width="20" height="20" fill="white"/>
    </clipPath>
  </defs>
</svg>