<svg width="26" height="26" viewBox="0 0 26 26" fill="none" xmlns="http://www.w3.org/2000/svg">
    <g filter="url(#filter0_d_2635_15380)">
        <rect x="4" y="2" width="18" height="18" rx="9" fill="#9E9FA4" shape-rendering="crispEdges"/>
        <path
            d="M13 2C17.9706 2 22 6.02943 22 11C22 15.9706 17.9706 20 13 20C8.02943 20 4 15.9706 4 11C4 6.02943 8.02943 2 13 2ZM13 3.28571C8.73979 3.28571 5.28571 6.73979 5.28571 11C5.28571 15.2602 8.73979 18.7143 13 18.7143C17.2602 18.7143 20.7143 15.2602 20.7143 11C20.7143 6.73979 17.2602 3.28571 13 3.28571Z"
            fill="#9E9FA4"/>
        <g clip-path="url(#clip0_2635_15380)">
            <path
                d="M10.75 6.49989C11.1644 6.49989 11.5 6.83551 11.5 7.24989L11.5 14.7499C11.5 15.1451 11.194 15.4691 10.8059 15.4976L10.75 15.4999C10.3356 15.4999 10 15.1643 10 14.7499L10 7.24989C10 6.85464 10.306 6.53064 10.6941 6.50176L10.75 6.49989ZM15.25 6.49989C15.6644 6.49989 16 6.83551 16 7.24989V14.7499C16 15.1451 15.694 15.4691 15.3059 15.4976L15.25 15.4999C14.8356 15.4999 14.5 15.1643 14.5 14.7499V7.24989C14.5 6.85464 14.806 6.53064 15.1941 6.50176L15.25 6.49989Z"
                fill="white"/>
        </g>
    </g>
    <defs>
        <filter id="filter0_d_2635_15380" x="0" y="0" width="26" height="26" filterUnits="userSpaceOnUse"
                color-interpolation-filters="sRGB">
            <feFlood flood-opacity="0" result="BackgroundImageFix"/>
            <feColorMatrix in="SourceAlpha" type="matrix" values="0 0 0 0 0 0 0 0 0 0 0 0 0 0 0 0 0 0 127 0"
                           result="hardAlpha"/>
            <feOffset dy="2"/>
            <feGaussianBlur stdDeviation="2"/>
            <feComposite in2="hardAlpha" operator="out"/>
            <feColorMatrix type="matrix" values="0 0 0 0 0 0 0 0 0 0.25098 0 0 0 0 0.866667 0 0 0 0.2 0"/>
            <feBlend mode="normal" in2="BackgroundImageFix" result="effect1_dropShadow_2635_15380"/>
            <feBlend mode="normal" in="SourceGraphic" in2="effect1_dropShadow_2635_15380" result="shape"/>
        </filter>
        <clipPath id="clip0_2635_15380">
            <rect width="12" height="12" fill="white" transform="translate(7 5)"/>
        </clipPath>
    </defs>
</svg>
