<?xml version="1.0" encoding="UTF-8"?>
<svg width="186px" height="186px" viewBox="0 0 186 186" version="1.1" xmlns="http://www.w3.org/2000/svg"
     xmlns:xlink="http://www.w3.org/1999/xlink">
    <title>RAimage</title>
    <defs>
        <polygon id="path-1"
                 points="0.000135766423 0.000271532847 186 0.000271532847 186 186 0.000135766423 186"></polygon>
        <path
            d="M0,13 L121,13 L121,77.411988 C121,79.3935923 119.393592,81 117.411988,81 L3.58801198,81 C1.60640768,81 2.9072118e-15,79.3935923 0,77.411988 L0,13 L0,13 Z"
            id="path-3"></path>
        <filter x="-22.7%" y="-39.0%" width="145.5%" height="180.9%" filterUnits="objectBoundingBox" id="filter-4">
            <feOffset dx="0" dy="1" in="SourceAlpha" result="shadowOffsetOuter1"></feOffset>
            <feGaussianBlur stdDeviation="9" in="shadowOffsetOuter1" result="shadowBlurOuter1"></feGaussianBlur>
            <feColorMatrix values="0 0 0 0 0   0 0 0 0 0.568627451   0 0 0 0 1  0 0 0 0.2 0" type="matrix"
                           in="shadowBlurOuter1"></feColorMatrix>
        </filter>
        <polygon id="path-5"
                 points="0 0.0116883117 4.67060733 0.0116883117 4.67060733 5.14281039 0 5.14281039"></polygon>
        <polygon id="path-7"
                 points="0.047475731 0.0116883117 4.71808306 0.0116883117 4.71808306 5.14281039 0.047475731 5.14281039"></polygon>
        <polygon id="path-9"
                 points="0.094951462 0.0116883117 4.76539675 0.0116883117 4.76539675 5.14281039 0.094951462 5.14281039"></polygon>
        <polygon id="path-11"
                 points="0.067738851 0.0747878727 91.9622585 0.0747878727 91.9622585 74.9720481 0.067738851 74.9720481"></polygon>
        <path
            d="M45.3176065,1.46145802 L12.9597434,58.4262908 C11.9232553,60.2527886 13.2425352,62.5172477 15.3454101,62.5172477 L80.0598905,62.5172477 C82.1615196,62.5172477 83.4820453,60.2527886 82.4455572,58.4262908 L50.0876942,1.46145802 C49.0375025,-0.387435511 46.3677981,-0.387435511 45.3176065,1.46145802"
            id="path-13"></path>
        <filter x="-17.8%" y="-18.4%" width="135.6%" height="140.0%" filterUnits="objectBoundingBox" id="filter-14">
            <feOffset dx="0" dy="1" in="SourceAlpha" result="shadowOffsetOuter1"></feOffset>
            <feGaussianBlur stdDeviation="4" in="shadowOffsetOuter1" result="shadowBlurOuter1"></feGaussianBlur>
            <feColorMatrix values="0 0 0 0 0   0 0 0 0 0.568627451   0 0 0 0 1  0 0 0 0.2 0" type="matrix"
                           in="shadowBlurOuter1"></feColorMatrix>
        </filter>
        <polygon id="path-15" points="0 0.03 70.5415882 0.03 70.5415882 62.762375 0 62.762375"></polygon>
    </defs>
    <g id="WORK-&gt;-Queue-Mapping-Routing-Priority--Q2-2020" stroke="none" stroke-width="1" fill="none"
       fill-rule="evenodd">
        <g id="Routing-Rules---Restricted-access" transform="translate(-661.000000, -282.000000)">
            <g id="Illustrations-/-In-Page-/-Issues" transform="translate(489.000000, 282.000000)">
                <g id="RAimage" transform="translate(172.000000, 0.000000)">
                    <g>
                        <mask id="mask-2" fill="white">
                            <use xlink:href="#path-1"></use>
                        </mask>
                        <g id="Clip-2"></g>
                        <path
                            d="M186.000136,93.0002715 C186.000136,144.362067 144.363289,186.000272 93.0001358,186.000272 C41.6369825,186.000272 0.000135766423,144.362067 0.000135766423,93.0002715 C0.000135766423,41.6371182 41.6369825,0.000271532847 93.0001358,0.000271532847 C144.363289,0.000271532847 186.000136,41.6371182 186.000136,93.0002715"
                            id="Fill-1" fill-opacity="0.05" fill="#066fac" mask="url(#mask-2)"></path>
                    </g>
                    <g id="Group-11" transform="translate(33.000000, 51.000000)">
                        <g id="Rectangle">
                            <use fill="black" fill-opacity="1" filter="url(#filter-4)" xlink:href="#path-3"></use>
                            <use fill="#FFFFFF" fill-rule="evenodd" xlink:href="#path-3"></use>
                        </g>
                        <rect id="Rectangle-Copy-8" fill="#F3F7FF" x="68" y="28" width="36" height="4"
                              rx="1.24800417"></rect>
                        <rect id="Rectangle-Copy-9" fill="#F3F7FF" x="68" y="38" width="17" height="4"
                              rx="1.24800417"></rect>
                        <g id="Group-14" transform="translate(11.000000, 28.000000)">
                            <rect id="Rectangle" fill="#F5FBFF" x="0" y="0" width="48.7306628"
                                  height="38.8341723"></rect>
                            <ellipse id="Oval" fill="#EFF3FF" cx="18.2974631" cy="20.323212" rx="3.10538537"
                                     ry="3.36562826"></ellipse>
                            <path
                                d="M13.5845314,28.275771 L21.4028485,38.7047202 L21.4028485,38.7047202 L2.77053623,38.7047202 L10.5888533,28.275771 C11.2090093,27.4485373 12.3823504,27.2806677 13.209584,27.9008236 C13.351724,28.0073824 13.4779726,28.133631 13.5845314,28.275771 Z"
                                id="Triangle" fill="#E6F4FF"></path>
                            <path
                                d="M33.6758793,21.1964955 L46.723683,38.7047202 L46.723683,38.7047202 L16.6253325,38.7047202 L29.6731363,21.1964955 C30.4968685,20.0911685 32.06068,19.8628909 33.1660069,20.6866232 C33.3597473,20.8310059 33.5314965,21.0027551 33.6758793,21.1964955 Z"
                                id="Triangle-Copy" fill="#E6F4FF"></path>
                        </g>
                        <g id="Group-8" fill="#23A1F5">
                            <path
                                d="M3.58801198,0 L117.411988,0 C119.393592,-7.40408751e-15 121,1.60640768 121,3.58801198 L121,16 L121,16 L0,16 L0,3.58801198 C-2.42676537e-16,1.60640768 1.60640768,-5.24163615e-16 3.58801198,0 Z"
                                id="Rectangle-Copy"></path>
                        </g>
                    </g>
                    <g id="Group-10" opacity="0.623372396" transform="translate(38.000000, 55.000000)">
                        <g id="Group-3" transform="translate(0.000000, 0.857143)">
                            <mask id="mask-6" fill="white">
                                <use xlink:href="#path-5"></use>
                            </mask>
                            <g id="Clip-2"></g>
                            <path
                                d="M2.33530366,0.0116415584 C3.62508803,0.0116415584 4.67060733,1.16036883 4.67060733,2.57699221 C4.67060733,3.99455065 3.62508803,5.14281039 2.33530366,5.14281039 C1.04511422,5.14281039 0,3.99455065 0,2.57699221 C0,1.16036883 1.04511422,0.0116415584 2.33530366,0.0116415584"
                                id="Fill-1" fill="#FFFFFF" mask="url(#mask-6)"></path>
                        </g>
                        <g id="Group-6" transform="translate(6.944280, 0.857143)">
                            <mask id="mask-8" fill="white">
                                <use xlink:href="#path-7"></use>
                            </mask>
                            <g id="Clip-5"></g>
                            <path
                                d="M2.38277939,0.0116415584 C3.67256376,0.0116415584 4.71808306,1.16036883 4.71808306,2.57699221 C4.71808306,3.99455065 3.67256376,5.14281039 2.38277939,5.14281039 C1.09299503,5.14281039 0.047475731,3.99455065 0.047475731,2.57699221 C0.047475731,1.16036883 1.09299503,0.0116415584 2.38277939,0.0116415584"
                                id="Fill-4" fill="#FFFFFF" mask="url(#mask-8)"></path>
                        </g>
                        <g id="Group-9" transform="translate(13.194133, 0.857143)">
                            <mask id="mask-10" fill="white">
                                <use xlink:href="#path-9"></use>
                            </mask>
                            <g id="Clip-8"></g>
                            <path
                                d="M2.43025512,0.0116415584 C3.72003949,0.0116415584 4.76555879,1.16036883 4.76555879,2.57699221 C4.76555879,3.99455065 3.72003949,5.14281039 2.43025512,5.14281039 C1.14047076,5.14281039 0.094951462,3.99455065 0.094951462,2.57699221 C0.094951462,1.16036883 1.14047076,0.0116415584 2.43025512,0.0116415584"
                                id="Fill-7" fill="#FFFFFF" mask="url(#mask-10)"></path>
                        </g>
                    </g>
                    <g id="Group-11" transform="translate(47.000000, 89.000000)">
                        <g id="Group-3">
                            <mask id="mask-12" fill="white">
                                <use xlink:href="#path-11"></use>
                            </mask>
                            <g id="Clip-2"></g>
                            <g id="Fill-1" mask="url(#mask-12)">
                                <use fill="black" fill-opacity="1" filter="url(#filter-14)" xlink:href="#path-13"></use>
                                <use fill="#FFFFFF" fill-rule="evenodd" xlink:href="#path-13"></use>
                            </g>
                        </g>
                        <g id="Group-6" transform="translate(12.204082, 0.000000)">
                            <mask id="mask-16" fill="white">
                                <use xlink:href="#path-15"></use>
                            </mask>
                            <g id="Clip-5"></g>
                            <path
                                d="M35.2704218,8.356125 L63.0506667,57.259875 L7.48892517,57.259875 L35.2704218,8.356125 Z M32.873415,1.423625 L0.362993197,58.653625 C-0.679673469,60.487375 0.647129252,62.762375 2.7587483,62.762375 L67.7820952,62.762375 C69.8937143,62.762375 71.220517,60.487375 70.179102,58.653625 L37.6674286,1.423625 C36.6109932,-0.435125 33.9298503,-0.435125 32.873415,1.423625 L32.873415,1.423625 Z"
                                id="Fill-4" fill="#FF8800" mask="url(#mask-16)"></path>
                        </g>
                        <path
                            d="M47.877551,21.5625 C49.3708055,21.5625 50.5927918,22.65338 50.6887593,24.0325982 L50.6938776,24.2068026 L50.6938776,38.6056974 C50.6938776,40.0642087 49.4335043,41.25 47.877551,41.25 C46.3842966,41.25 45.1623103,40.15912 45.0676223,38.7787003 L45.0612245,38.6056974 L45.0612245,24.2068026 C45.0612245,22.7458885 46.3228774,21.5625 47.877551,21.5625"
                            id="Fill-7" fill="#20002E"></path>
                        <path
                            d="M47.877551,46.875 C49.4335043,46.875 50.6938776,48.1336608 50.6938776,49.6875 C50.6938776,51.2413392 49.4335043,52.5 47.877551,52.5 C46.3228774,52.5 45.0612245,51.2413392 45.0612245,49.6875 C45.0612245,48.1336608 46.3228774,46.875 47.877551,46.875"
                            id="Fill-9" fill="#20002E"></path>
                    </g>
                </g>
            </g>
        </g>
    </g>
</svg>
